<svg width="510" height="487" viewBox="0 0 510 487" fill="none" xmlns="http://www.w3.org/2000/svg">
<path d="M263 114H311V218.741L263 252V114Z" fill="#0072CE"/>
<path d="M290.229 155.029L263.228 113.905L362.786 47.9987L362.786 104.502L290.229 155.029Z" fill="#0072CE"/>
<path d="M263 114.004H311V218.745L263 252.004V114.004Z" fill="#2D7EBF"/>
<path d="M290.228 155.034L263 114.003L362.785 48.0036L362.785 104.506L290.228 155.034Z" fill="#2D7EBF"/>
<path d="M246.013 114.004H198.013V218.745L246.013 252.004V114.004Z" fill="#353535"/>
<path d="M218.785 155.033L246 113.999L146.228 48.0027L146.228 104.506L218.785 155.033Z" fill="#353535"/>
<path d="M105 0H190L255 45V101L123.5 12.5L105 0Z" fill="#353535"/>
<path d="M404 0H319.5L254 46L250 74L255 101L385.5 13.5L404 0Z" fill="#353535"/>
</svg>
