<svg width="510" height="487" viewBox="0 0 510 487" fill="none" xmlns="http://www.w3.org/2000/svg">
<path d="M263 114H311V218.741L263 252V114Z" fill="#0072CE"/>
<path d="M290.229 155.031L263.228 113.908L362.786 48.0011L362.786 104.504L290.229 155.031Z" fill="#0072CE"/>
<path d="M263 114.004H311V218.745L263 252.004V114.004Z" fill="#2D7EBF"/>
<path d="M290.228 155.035L263.001 114.004L362.786 48.0045L362.786 104.507L290.228 155.035Z" fill="#2D7EBF"/>
<path d="M246.013 114.004H198.013V218.745L246.013 252.004V114.004Z" fill="#676666"/>
<path d="M218.785 155.034L246 114L146.228 48.0035L146.228 104.506L218.785 155.034Z" fill="#676666"/>
<path d="M105 0H190L255 45V101L123.5 12.5L105 0Z" fill="#676666"/>
<path d="M404 0H319.5L254 46L250 74L255 101L385.5 13.5L404 0Z" fill="#676666"/>
<path d="M65.1155 437V400.6H79.9355C83.8182 400.6 87.2155 401.38 90.1275 402.94C93.0742 404.465 95.3622 406.597 96.9915 409.336C98.6208 412.075 99.4355 415.229 99.4355 418.8C99.4355 422.371 98.6208 425.525 96.9915 428.264C95.3622 431.003 93.0742 433.152 90.1275 434.712C87.2155 436.237 83.8182 437 79.9355 437H65.1155ZM68.9635 433.672H79.7275C82.9515 433.672 85.7422 433.048 88.0995 431.8C90.4915 430.517 92.3462 428.767 93.6635 426.548C94.9808 424.295 95.6395 421.712 95.6395 418.8C95.6395 415.853 94.9808 413.271 93.6635 411.052C92.3462 408.833 90.4915 407.1 88.0995 405.852C85.7422 404.569 82.9515 403.928 79.7275 403.928H68.9635V433.672ZM118.892 437.26C116.05 437.26 113.554 436.671 111.404 435.492C109.255 434.279 107.574 432.632 106.36 430.552C105.147 428.437 104.54 426.028 104.54 423.324C104.54 420.62 105.112 418.228 106.256 416.148C107.435 414.068 109.03 412.439 111.04 411.26C113.086 410.047 115.374 409.44 117.904 409.44C120.47 409.44 122.74 410.029 124.716 411.208C126.727 412.352 128.304 413.981 129.448 416.096C130.592 418.176 131.164 420.585 131.164 423.324C131.164 423.497 131.147 423.688 131.112 423.896C131.112 424.069 131.112 424.26 131.112 424.468H107.348V421.712H129.136L127.68 422.804C127.68 420.828 127.247 419.077 126.38 417.552C125.548 415.992 124.404 414.779 122.948 413.912C121.492 413.045 119.811 412.612 117.904 412.612C116.032 412.612 114.351 413.045 112.86 413.912C111.37 414.779 110.208 415.992 109.376 417.552C108.544 419.112 108.128 420.897 108.128 422.908V423.48C108.128 425.56 108.579 427.397 109.48 428.992C110.416 430.552 111.699 431.783 113.328 432.684C114.992 433.551 116.882 433.984 118.996 433.984C120.66 433.984 122.203 433.689 123.624 433.1C125.08 432.511 126.328 431.609 127.368 430.396L129.448 432.788C128.235 434.244 126.71 435.353 124.872 436.116C123.07 436.879 121.076 437.26 118.892 437.26ZM139.303 437V406.268C139.303 403.841 140.014 401.883 141.435 400.392C142.857 398.901 144.902 398.156 147.571 398.156C148.611 398.156 149.617 398.295 150.587 398.572C151.558 398.849 152.373 399.283 153.031 399.872L151.783 402.628C151.263 402.177 150.657 401.848 149.963 401.64C149.27 401.397 148.525 401.276 147.727 401.276C146.167 401.276 144.971 401.709 144.139 402.576C143.307 403.443 142.891 404.725 142.891 406.424V410.584L142.995 412.3V437H139.303ZM134.415 412.768V409.7H151.315V412.768H134.415ZM167.439 437.26C164.597 437.26 162.101 436.671 159.951 435.492C157.802 434.279 156.121 432.632 154.907 430.552C153.694 428.437 153.087 426.028 153.087 423.324C153.087 420.62 153.659 418.228 154.803 416.148C155.982 414.068 157.577 412.439 159.587 411.26C161.633 410.047 163.921 409.44 166.451 409.44C169.017 409.44 171.287 410.029 173.263 411.208C175.274 412.352 176.851 413.981 177.995 416.096C179.139 418.176 179.711 420.585 179.711 423.324C179.711 423.497 179.694 423.688 179.659 423.896C179.659 424.069 179.659 424.26 179.659 424.468H155.895V421.712H177.683L176.227 422.804C176.227 420.828 175.794 419.077 174.927 417.552C174.095 415.992 172.951 414.779 171.495 413.912C170.039 413.045 168.358 412.612 166.451 412.612C164.579 412.612 162.898 413.045 161.407 413.912C159.917 414.779 158.755 415.992 157.923 417.552C157.091 419.112 156.675 420.897 156.675 422.908V423.48C156.675 425.56 157.126 427.397 158.027 428.992C158.963 430.552 160.246 431.783 161.875 432.684C163.539 433.551 165.429 433.984 167.543 433.984C169.207 433.984 170.75 433.689 172.171 433.1C173.627 432.511 174.875 431.609 175.915 430.396L177.995 432.788C176.782 434.244 175.257 435.353 173.419 436.116C171.617 436.879 169.623 437.26 167.439 437.26ZM201.162 409.44C203.381 409.44 205.322 409.873 206.986 410.74C208.685 411.572 210.002 412.855 210.938 414.588C211.909 416.321 212.394 418.505 212.394 421.14V437H208.702V421.504C208.702 418.627 207.974 416.46 206.518 415.004C205.097 413.513 203.086 412.768 200.486 412.768C198.545 412.768 196.846 413.167 195.39 413.964C193.969 414.727 192.859 415.853 192.062 417.344C191.299 418.8 190.918 420.568 190.918 422.648V437H187.226V409.7H190.762V417.188L190.19 415.784C191.057 413.808 192.443 412.265 194.35 411.156C196.257 410.012 198.527 409.44 201.162 409.44ZM229.699 437.26C227.445 437.26 225.313 436.948 223.303 436.324C221.292 435.665 219.715 434.851 218.571 433.88L220.235 430.968C221.344 431.8 222.765 432.528 224.499 433.152C226.232 433.741 228.052 434.036 229.959 434.036C232.559 434.036 234.431 433.637 235.575 432.84C236.719 432.008 237.291 430.916 237.291 429.564C237.291 428.559 236.961 427.779 236.303 427.224C235.679 426.635 234.847 426.201 233.807 425.924C232.767 425.612 231.605 425.352 230.323 425.144C229.04 424.936 227.757 424.693 226.475 424.416C225.227 424.139 224.083 423.74 223.043 423.22C222.003 422.665 221.153 421.92 220.495 420.984C219.871 420.048 219.559 418.8 219.559 417.24C219.559 415.749 219.975 414.415 220.807 413.236C221.639 412.057 222.852 411.139 224.447 410.48C226.076 409.787 228.052 409.44 230.375 409.44C232.143 409.44 233.911 409.683 235.679 410.168C237.447 410.619 238.903 411.225 240.047 411.988L238.435 414.952C237.221 414.12 235.921 413.531 234.535 413.184C233.148 412.803 231.761 412.612 230.375 412.612C227.913 412.612 226.093 413.045 224.915 413.912C223.771 414.744 223.199 415.819 223.199 417.136C223.199 418.176 223.511 418.991 224.135 419.58C224.793 420.169 225.643 420.637 226.683 420.984C227.757 421.296 228.919 421.556 230.167 421.764C231.449 421.972 232.715 422.232 233.963 422.544C235.245 422.821 236.407 423.22 237.447 423.74C238.521 424.225 239.371 424.936 239.995 425.872C240.653 426.773 240.983 427.969 240.983 429.46C240.983 431.055 240.532 432.441 239.631 433.62C238.764 434.764 237.481 435.665 235.783 436.324C234.119 436.948 232.091 437.26 229.699 437.26ZM259.353 437.26C256.511 437.26 254.015 436.671 251.865 435.492C249.716 434.279 248.035 432.632 246.821 430.552C245.608 428.437 245.001 426.028 245.001 423.324C245.001 420.62 245.573 418.228 246.717 416.148C247.896 414.068 249.491 412.439 251.501 411.26C253.547 410.047 255.835 409.44 258.365 409.44C260.931 409.44 263.201 410.029 265.177 411.208C267.188 412.352 268.765 413.981 269.909 416.096C271.053 418.176 271.625 420.585 271.625 423.324C271.625 423.497 271.608 423.688 271.573 423.896C271.573 424.069 271.573 424.26 271.573 424.468H247.809V421.712H269.597L268.141 422.804C268.141 420.828 267.708 419.077 266.841 417.552C266.009 415.992 264.865 414.779 263.409 413.912C261.953 413.045 260.272 412.612 258.365 412.612C256.493 412.612 254.812 413.045 253.321 413.912C251.831 414.779 250.669 415.992 249.837 417.552C249.005 419.112 248.589 420.897 248.589 422.908V423.48C248.589 425.56 249.04 427.397 249.941 428.992C250.877 430.552 252.16 431.783 253.789 432.684C255.453 433.551 257.343 433.984 259.457 433.984C261.121 433.984 262.664 433.689 264.085 433.1C265.541 432.511 266.789 431.609 267.829 430.396L269.909 432.788C268.696 434.244 267.171 435.353 265.333 436.116C263.531 436.879 261.537 437.26 259.353 437.26ZM309.494 437.312C306.72 437.312 304.155 436.861 301.798 435.96C299.475 435.024 297.447 433.724 295.714 432.06C294.015 430.396 292.68 428.437 291.71 426.184C290.774 423.931 290.306 421.469 290.306 418.8C290.306 416.131 290.774 413.669 291.71 411.416C292.68 409.163 294.032 407.204 295.766 405.54C297.499 403.876 299.527 402.593 301.85 401.692C304.207 400.756 306.772 400.288 309.546 400.288C312.319 400.288 314.85 400.721 317.138 401.588C319.46 402.455 321.436 403.772 323.066 405.54L320.674 407.984C319.148 406.459 317.467 405.367 315.63 404.708C313.792 404.049 311.816 403.72 309.702 403.72C307.448 403.72 305.368 404.101 303.462 404.864C301.59 405.592 299.943 406.649 298.522 408.036C297.135 409.388 296.043 410.983 295.246 412.82C294.483 414.623 294.102 416.616 294.102 418.8C294.102 420.949 294.483 422.943 295.246 424.78C296.043 426.617 297.135 428.229 298.522 429.616C299.943 430.968 301.59 432.025 303.462 432.788C305.368 433.516 307.431 433.88 309.65 433.88C311.73 433.88 313.688 433.568 315.526 432.944C317.398 432.32 319.114 431.263 320.674 429.772L322.858 432.684C321.124 434.209 319.096 435.371 316.774 436.168C314.451 436.931 312.024 437.312 309.494 437.312ZM319.166 432.216V418.8H322.858V432.684L319.166 432.216ZM332.968 437V409.7H336.504V417.136L336.14 415.836C336.903 413.756 338.186 412.179 339.988 411.104C341.791 409.995 344.027 409.44 346.696 409.44V413.028C346.558 413.028 346.419 413.028 346.28 413.028C346.142 412.993 346.003 412.976 345.864 412.976C342.987 412.976 340.734 413.86 339.104 415.628C337.475 417.361 336.66 419.84 336.66 423.064V437H332.968ZM364.307 437.26C361.673 437.26 359.298 436.671 357.183 435.492C355.103 434.279 353.457 432.632 352.243 430.552C351.03 428.437 350.423 426.028 350.423 423.324C350.423 420.585 351.03 418.176 352.243 416.096C353.457 414.016 355.103 412.387 357.183 411.208C359.263 410.029 361.638 409.44 364.307 409.44C367.011 409.44 369.403 410.029 371.483 411.208C373.598 412.387 375.245 414.016 376.423 416.096C377.637 418.176 378.243 420.585 378.243 423.324C378.243 426.028 377.637 428.437 376.423 430.552C375.245 432.632 373.598 434.279 371.483 435.492C369.369 436.671 366.977 437.26 364.307 437.26ZM364.307 433.984C366.283 433.984 368.034 433.551 369.559 432.684C371.085 431.783 372.281 430.535 373.147 428.94C374.049 427.311 374.499 425.439 374.499 423.324C374.499 421.175 374.049 419.303 373.147 417.708C372.281 416.113 371.085 414.883 369.559 414.016C368.034 413.115 366.301 412.664 364.359 412.664C362.418 412.664 360.685 413.115 359.159 414.016C357.634 414.883 356.421 416.113 355.519 417.708C354.618 419.303 354.167 421.175 354.167 423.324C354.167 425.439 354.618 427.311 355.519 428.94C356.421 430.535 357.634 431.783 359.159 432.684C360.685 433.551 362.401 433.984 364.307 433.984ZM397.065 437.26C394.742 437.26 392.714 436.827 390.981 435.96C389.247 435.093 387.895 433.793 386.925 432.06C385.989 430.327 385.521 428.16 385.521 425.56V409.7H389.213V425.144C389.213 428.056 389.923 430.257 391.345 431.748C392.801 433.204 394.829 433.932 397.429 433.932C399.335 433.932 400.982 433.551 402.369 432.788C403.79 431.991 404.865 430.847 405.593 429.356C406.355 427.865 406.737 426.08 406.737 424V409.7H410.429V437H406.893V429.512L407.465 430.864C406.598 432.875 405.246 434.452 403.409 435.596C401.606 436.705 399.491 437.26 397.065 437.26ZM434.81 437.26C432.453 437.26 430.321 436.723 428.414 435.648C426.508 434.539 424.982 432.961 423.838 430.916C422.729 428.836 422.174 426.305 422.174 423.324C422.174 420.343 422.729 417.829 423.838 415.784C424.948 413.704 426.456 412.127 428.362 411.052C430.269 409.977 432.418 409.44 434.81 409.44C437.41 409.44 439.733 410.029 441.778 411.208C443.858 412.352 445.488 413.981 446.666 416.096C447.845 418.176 448.434 420.585 448.434 423.324C448.434 426.097 447.845 428.524 446.666 430.604C445.488 432.684 443.858 434.313 441.778 435.492C439.733 436.671 437.41 437.26 434.81 437.26ZM420.718 447.088V409.7H424.254V417.916L423.89 423.376L424.41 428.888V447.088H420.718ZM434.55 433.984C436.492 433.984 438.225 433.551 439.75 432.684C441.276 431.783 442.489 430.535 443.39 428.94C444.292 427.311 444.742 425.439 444.742 423.324C444.742 421.209 444.292 419.355 443.39 417.76C442.489 416.165 441.276 414.917 439.75 414.016C438.225 413.115 436.492 412.664 434.55 412.664C432.609 412.664 430.858 413.115 429.298 414.016C427.773 414.917 426.56 416.165 425.658 417.76C424.792 419.355 424.358 421.209 424.358 423.324C424.358 425.439 424.792 427.311 425.658 428.94C426.56 430.535 427.773 431.783 429.298 432.684C430.858 433.551 432.609 433.984 434.55 433.984Z" fill="#676666"/>
<path d="M116.313 371V300H88.313V283.5H164.563V300H136.563V371H116.313ZM175.458 371V283.5H195.708V371H175.458ZM216.474 371V283.5H233.224L270.474 345.25H261.599L298.224 283.5H314.849L315.099 371H296.099L295.974 312.625H299.474L270.224 361.75H261.099L231.224 312.625H235.474V371H216.474ZM324.359 371L363.359 283.5H383.359L422.484 371H401.234L369.234 293.75H377.234L345.109 371H324.359ZM343.859 352.25L349.234 336.875H394.234L399.734 352.25H343.859Z" fill="#676666"/>
</svg>
